<svg xmlns="http://www.w3.org/2000/svg" viewBox="0 0 28.95 26.31"><defs><style>.cls-1{fill:#f4ece0;}.cls-2{fill:#be917d;}</style></defs><title>資產 6</title><g id="圖層_2" data-name="圖層 2"><g id="圖層_1-2" data-name="圖層 1"><path class="cls-1" d="M7.72,20H8l-.85,2.11H7.11l-.69-1.71-.69,1.71H5.66L4.81,20h.31l.58,1.45L6.28,20h.28l.59,1.45Z"/><path class="cls-1" d="M9,20h1.19v.27H9.33v.64h.86v.27H9.33v.65h.92v.27H9Z"/><path class="cls-1" d="M11.35,22.12V20h.7a1.42,1.42,0,0,1,.68.13.92.92,0,0,1,.4.38,1,1,0,0,1,.15.54,1.06,1.06,0,0,1-.08.4,1,1,0,0,1-.23.34,1.16,1.16,0,0,1-.36.23l-.22.06-.38,0ZM12,20.29h-.37v1.56H12a1.56,1.56,0,0,0,.35,0,.71.71,0,0,0,.21-.08.58.58,0,0,0,.15-.11.82.82,0,0,0,.23-.58.73.73,0,0,0-.23-.55,1,1,0,0,0-.2-.13,1,1,0,0,0-.2-.07Z"/><path class="cls-1" d="M14.43,22.12V20h.71a1.47,1.47,0,0,1,.68.13,1,1,0,0,1,.4.38,1.09,1.09,0,0,1,.14.54,1,1,0,0,1-.31.74,1,1,0,0,1-.36.23l-.22.06-.38,0Zm.68-1.83h-.38v1.56h.39a1.62,1.62,0,0,0,.35,0,1,1,0,0,0,.21-.08l.15-.11a.81.81,0,0,0,.22-.58.73.73,0,0,0-.23-.55.91.91,0,0,0-.19-.13.86.86,0,0,0-.21-.07Z"/><path class="cls-1" d="M17.51,20h.3v2.1h-.3Z"/><path class="cls-1" d="M20.72,20H21v2.1h-.26L19.34,20.5v1.62h-.28V20h.24l1.42,1.63Z"/><path class="cls-1" d="M23.37,21.09h.7V22a2,2,0,0,1-.77.17,1.15,1.15,0,0,1-.83-.31,1,1,0,0,1-.32-.75,1.06,1.06,0,0,1,.33-.79,1.15,1.15,0,0,1,.81-.31,1.27,1.27,0,0,1,.34,0,3.29,3.29,0,0,1,.4.14v.31a1.44,1.44,0,0,0-.75-.22.79.79,0,0,0-.81.81.81.81,0,0,0,.23.59.85.85,0,0,0,.61.22,1.23,1.23,0,0,0,.43-.08h0v-.44h-.4Z"/><path class="cls-2" d="M28.26,24.4a1.09,1.09,0,0,1-1,1.13H1.71a1.08,1.08,0,0,1-1-1.13V6.72L7,11.7l6.38-5V17.43h.67V5.82h-.67L7,10.77.69,5.82H0V24.4c0,1.3.53,1.91,1.71,1.91H27.23c1.19,0,1.72-.61,1.72-1.91V19.12h-.69Z"/><path class="cls-2" d="M27.23,0H1.71C.53,0,0,.61,0,1.91v2.5H.69V1.91a1.08,1.08,0,0,1,1-1.13H27.23a1.09,1.09,0,0,1,1,1.13V16.34L18.34,5.82h-.67V17.43h.67V6.87l9.92,10.56h.68v-.08h0V1.91C29,.61,28.42,0,27.23,0Z"/></g></g></svg>